                                   



                        =!HD DESI ROCKER RELEASES!=












 

Release Title: Green Zone 2010 720P BRRip[Dual-Audio][Eng-Hindi]~BONIIN
Release Date: 12 March 2010 (USA) 
Release Length: 1h 50mn


Tagline: Chief Warrant Officer Roy Miller is done following orders 
  
Storyline:Following the American invasion of Iraq in 2003 Chief Warrant Officer Roy Miller
and his men are charged with finding the so-called weapons of mass destruction, whose existence
justified American involvement, according to the Pentagon and their man in Baghdad, Poundsgate.
Veteran CIA operative Marty tells Miller that there are no weapons, it is a deception to allow 
the Americans to take over the country and install a puppet leader. Also suspicious of Poundsgate
is Wall Street Journal reporter Lawrie Dayne, who lets slip to Miller that Poundsgate told her he
had secret talks in Jordan with an important Iraqi, code-named Magellan, who told him about the weapons, 
though it now seems likely Magellan's true information was to the contrary. So begins a hunt for the 
truth. Who's playing whom?
 






Cast:

 
 
 Yigal Naor ...  General Al Rawi (as Igal Naor) 

 Said Faraj ...  Seyyed Hamza
 
 Faycal Attougui ...  Al Rawi Bodyguard (as Faical Attougui) 

 Aymen Hamdouchi ...  Ayad Hamza 

 Matt Damon ...  Miller 

 Nicoye Banks ...  Perry 

 Jerry Della Salla ...  Wilkins 

 Sean Huze ...  Conway 

 Michael J. Dwyer ...  MET D (as Michael Dwyer) 

 Edouard H.R. Gluck ...  MET D 

 Brian Siefkes ...  MET D 

 Adam Wendling ...  MET D 

 Abdul Henderson ...  MET D 

 Paul Karsko ...  MET D - Sims 

 Robert Miller ...  MET D 





 





General INFO:

Title............................: Green Zone 2010 720P BRRip[Dual-Audio][Eng-Hindi]~BONIIN
Genre............................: Action | Drama | Thriller | War 
Directer.........................: Paul Greengrass
Writer...........................: Brian Helgeland & Rajiv Chandrasekaran
IMDB.............................: http://www.imdb.com/title/tt0947810/
year.............................: 12 March 2010 (USA)   
User Rating......................: 7.1/10   25,729 votes »   
VIDEO Source.....................: Green Zone 2010 1080p Bluray x264-CBGB                                                   
File size........................: 1.93 GB
Run time.........................: 1h 50mn
Languages........................: English.Hindi
Subtittle........................: NONE
Ripper...........................: BONIIN[BOW]






Video:
ID                               : 1
Format                           : AVC
Format/Info                      : Advanced Video Codec
Format profile                   : High@L4.1
Format settings, CABAC           : Yes
Format settings, ReFrames        : 2 frames
Muxing mode                      : Container profile=Unknown@4.1
Codec ID                         : V_MPEG4/ISO/AVC
Duration                         : 1h 50mn
Bit rate                         : 1 864 Kbps
Nominal bit rate                 : 1 836 Kbps
Overall bit rate                 : 2 555 Kbps
Width                            : 1 280 pixels
Height                           : 528 pixels
Display aspect ratio             : 2.40:1
Frame rate                       : 25.000 fps
Original frame rate              : 23.976 fps
Resolution                       : 8 bits
Colorimetry                      : 4:2:0
Scan type                        : Progressive
Bits/(Pixel*Frame)               : 0.110
Stream size                      : 1.43 GiB (73%)
Writing library                  : x264 core 80 r1376M 3feaec2
Encoding settings                : cabac=1 / ref=1 / deblock=1:-1:-1 / analyse=0x3:0x3 
Encoded date                     : UTC 2010-09-04 05:39:48
Writing application              : mkvmerge v3.3.0 ('Language') built on Mar 24 2010 14:59:24
Writing library                  : libebml v0.8.0 + libmatroska v0.9.0







Audio #1
ID                               : 2
Format                           : AC-3
Format/Info                      : Audio Coding 3
Codec ID                         : A_AC3
Duration                         : 1h 50mn
Bit rate mode                    : Constant
Bit rate                         : 384 Kbps
Channel(s)                       : 6 channels
Channel positions                : Front: L C R, Side: L R, LFE
Sampling rate                    : 48.0 KHz
Stream size                      : 302 MiB (15%)
Title                            : Ripper~BONIIN~
Language                         : English







Audio #2
ID                               : 3
Format                           : AC-3
Format/Info                      : Audio Coding 3
Codec ID                         : A_AC3
Duration                         : 1h 50mn
Bit rate mode                    : Constant
Bit rate                         : 256 Kbps
Channel(s)                       : 2 channels
Channel positions                : Front: L R
Sampling rate                    : 48.0 KHz
Video delay                      : 800ms
Stream size                      : 202 MiB (10%)
Title                            : Ripper~BONIIN~
Language                         : Hindi








SCREENSHOTS
 
http://img255.imageshack.us/img255/3246/732521496533476514881.png 
http://img841.imageshack.us/img841/5895/vlcsnap2010090323h17m28.png 
http://img710.imageshack.us/img710/8062/592186899665596454511.png 
http://img690.imageshack.us/img690/9453/vlcsnap2010090323h16m59.png 
http://img827.imageshack.us/img827/6376/925566810157644598691.png 
http://img84.imageshack.us/img84/433/288843931792609180631.png 
http://img811.imageshack.us/img811/6758/vlcsnap2010090323h21m49.png 
http://img337.imageshack.us/img337/6476/vlcsnap2010090323h18m18.png 
http://img18.imageshack.us/img18/6990/vlcsnap2010090323h22m33.png 
http://img5.imageshack.us/img5/7244/vlcsnap2010090323h22m41.png 
http://img718.imageshack.us/img718/4070/vlcsnap2010090323h25m46.png